# xmcd
#
# Track frame offsets:
#	150
#	15914
#	32433
#	49465
#	65903
#	83313
#	98753
#	116028
#	133060
#	150848
#	163642
#	179028
#	197842
#	213525
#	231934
#	245835
#
# Disc length: 3481 seconds
#
# Revision: 1
# Processed by: cddbd v1.5.1PL0 Copyright (c) Steve Scherf et al.
# Submitted via: EasyCDDAExtractor 6.2.0.3
#
DISCID=d90d9710
DTITLE=Renê and Ronaldo - O Melhor De
DYEAR=2005
DGENRE=Country
TTITLE0=Fonte De Desejos
TTITLE1=Separados
TTITLE2=Hoje Eu Quero Te Amar
TTITLE3=Cicatriz
TTITLE4=Faz Amor (Tod Ahora Ela Quer)
TTITLE5=Tocando Em Frente
TTITLE6=De Coração Pra Coração
TTITLE7=Eu Sou De Você
TTITLE8=O Amor Da Minha Vida
TTITLE9=Agarrados
TTITLE10=Ombro Amigo
TTITLE11=O Que Me Leva É O Amor (He Ain't Heavy... He's My Brother)
TTITLE12=Nosso Amor É Bom Demais
TTITLE13=O Portão
TTITLE14=No Rancho Fundo
TTITLE15=Sem Querer
EXTD=by Flávio Abrahão Biasuz
EXTT0=
EXTT1=
EXTT2=
EXTT3=
EXTT4=
EXTT5=
EXTT6=
EXTT7=
EXTT8=
EXTT9=
EXTT10=
EXTT11=
EXTT12=
EXTT13=
EXTT14=
EXTT15=
PLAYORDER=
